<svg xmlns="http://www.w3.org/2000/svg" width="31" height="31" viewBox="0 0 31 31">
  <g id="icon-edit" transform="translate(-1453 -801)">
    <rect id="Rectangle_44" data-name="Rectangle 44" width="31" height="31" transform="translate(1453 801)" fill="none"/>
    <g id="edit" transform="translate(1454.702 803.057)">
      <path id="Path" d="M26.679,0H1.117a1.117,1.117,0,1,0,0,2.234H26.679a1.117,1.117,0,1,0,0-2.234Z" transform="translate(0 25.561)"/>
      <path id="Path-2" data-name="Path" d="M-2459.913-2666.693a1,1,0,0,1-.7-.3.983.983,0,0,1-.21-1.088l3.1-7.3a1,1,0,0,1,.212-.317l12.321-12.321a2.23,2.23,0,0,1,1.589-.657,2.213,2.213,0,0,1,1.575.65l2.46,2.46a2.241,2.241,0,0,1-.006,3.165l-12.322,12.323a1.04,1.04,0,0,1-.316.21l-7.305,3.093A1,1,0,0,1-2459.913-2666.693Zm12.795-16.243h0l-8.648,8.648-1.805,4.263,4.262-1.806,8.648-8.649-2.457-2.456Zm3.508-3.508h0l-.006.006-1.923,1.923,2.457,2.458,1.923-1.924.007-.006-2.458-2.456Z" transform="translate(2466.717 2688.674)" stroke="rgba(0,0,0,0)" stroke-width="1"/>
    </g>
  </g>
</svg>
